# AST/ASF file generated using VICON BodyLanguage
# -----------------------------------------------
:version 1.10
:name VICON
:units
  mass 1.0
  length 0.45
  angle deg
:documentation
   .ast/.asf automatically generated from VICON data using
   VICON BodyBuilder and BodyLanguage model FoxedUp or BRILLIANT.MOD
:root
   order TX TY TZ RX RY RZ
   axis XYZ
   position 0 0 0  
   orientation 0 0 0 
:bonedata
  begin
     id 1 
     name lhipjoint
     direction 0.62366 -0.717238 0.310833 
     length 2.53602 
     axis 0 0 0  XYZ
  end
  begin
     id 2 
     name lfemur
     direction 0.34202 -0.939693 0  
     length 7.40817  
     axis 0 0 20  XYZ
    dof rx ry rz
    limits (-160.0 20.0)
           (-70.0 70.0)
           (-60.0 70.0)
  end
  begin
     id 3 
     name ltibia
     direction 0.34202 -0.939693 0   
     length 7.7045   
     axis 0 0 20   XYZ
    dof rx
    limits (-10.0 170.0)
  end
  begin
     id 4 
     name lfoot
     direction 0.0673888 -0.185149 0.980397   
     length 2.09456   
     axis -90 7.62852e-016 20   XYZ
    dof rx rz
    limits (-45.0 90.0)
           (-70.0 20.0)
  end
  begin
     id 5 
     name ltoes
     direction 1.53575e-011 -4.21994e-011 1   
     length 1.05543   
     axis -90 7.62852e-016 20   XYZ
    dof rx
    limits (-90.0 20.0)
  end
  begin
     id 6 
     name rhipjoint
     direction -0.489018 -0.800347 0.346851   
     length 2.27268  
     axis 0 0 0  XYZ 
  end
  begin
     id 7 
     name rfemur
     direction -0.34202 -0.939693 0   
     length 7.55487   
     axis 0 0 -20   XYZ
    dof rx ry rz
    limits (-160.0 20.0)
           (-70.0 70.0)
           (-70.0 60.0)
  end
  begin
     id 8 
     name rtibia
     direction -0.34202 -0.939693 0   
     length 7.78969   
     axis 0 0 -20   XYZ
    dof rx
    limits (-10.0 170.0)
 end
 begin
     id 9 
     name rfoot
     direction -0.0859318 -0.236096 0.967923   
     length 2.19143  
     axis -90 -7.62852e-016 -20   XYZ
    dof rx rz
    limits (-45.0 90.0)
           (-20.0 70.0)
  end
  begin
     id 10 
     name rtoes
     direction -1.53538e-011 -4.21989e-011 1   
     length 1.09845   
     axis -90 -7.62852e-016 -20   XYZ
    dof rx
    limits (-90.0 20.0)
  end
  begin
     id 11 
     name lowerback
     direction -0.00762546 0.998978 -0.0445553   
     length 1.98161   
     axis 0 0 0   XYZ
    dof rx ry rz
    limits (-20.0 45.0)
           (-30.0 30.0)
           (-30.0 30.0)
  end
  begin
     id 12 
     name upperback
     direction 0.0422361 0.998867 -0.0219156   
     length 1.97558   
     axis 0 0 0   XYZ
    dof rx ry rz
    limits (-20.0 45.0)
           (-30.0 30.0)
           (-30.0 30.0)
  end
  begin
     id 13 
     name thorax
     direction 0.0442465 0.999021 7.47603e-005   
     length 1.97799   
     axis 0 0 0   XYZ
    dof rx ry rz
    limits (-20.0 45.0)
           (-30.0 30.0)
           (-30.0 30.0)
  end
  begin
     id 14 
     name lowerneck
     direction 0.00312169 0.984641 0.174564   
     length 1.78995   
     axis 0 0 0   XYZ
    dof rx ry rz
    limits (-20.0 45.0)
           (-30.0 30.0)
           (-30.0 30.0)
  end
  begin
     id 15 
     name upperneck
     direction -0.0383028 0.985255 -0.166749   
     length 1.83053   
     axis 0 0 0   XYZ
    dof rx ry rz
    limits (-20.0 45.0)
           (-30.0 30.0)
           (-30.0 30.0)
  end
  begin
     id 16
     name head
     direction -0.0129546 0.997059 -0.0755386  
     length 1.84088  
     axis 0 0 0   XYZ
    dof rx ry rz
    limits (-20.0 45.0)
           (-30.0 30.0)
           (-30.0 30.0)
  end
  begin
     id 17 
     name lclavicle
     direction 0.912857 0.370519 -0.171488  
     length 3.51279  
     axis 0 0 0   XYZ
    dof ry rz
    limits (-20.0 10.0)
           (0.0 20.0)
  end
  begin
     id 18 
     name lhumerus
     direction 1 -4.48962e-011 3.64361e-027   
     length 4.95663   
     axis 180 -30 -90   XYZ
    dof rx ry rz
    limits (-60.0 90.0)
           (-90.0 90.0)
           (-90.0 90.0)
  end
  begin
     id 19
     name lradius
     direction 1 -4.48974e-011 5.97202e-027   
     length 3.38177   
     axis 180 -30 -90   XYZ
    dof rx
    limits (-10.0 170.0)
  end
  begin
     id 20
     name lwrist
     direction 1 -4.4896e-011 9.83288e-027   
     length 1.69088   
     axis -9.31221e-015 90 90   XYZ
    dof ry
    limits (-180.0 0.0)
 end
  begin
     id 21 
     name lhand
     direction 1 -4.4902e-011 1.96551e-026   
     length 0.662909   
     axis -1.25475e-014 90 90   XYZ
    dof rx rz
    limits (-90.0 90.0)
           (-45.0 45.0)
  end
  begin
     id 22 
     name lfingers
     direction 1 -4.48971e-011 3.93277e-026   
     length 0.534454   
     axis -2.50945e-014 90 90   XYZ
    dof rx
    limits (0.0 90.0)
  end
  begin
     id 23
     name lthumb
     direction 0.707107 -6.34933e-011 0.707107   
     length 0.767373   
     axis -90 45 -4.80359e-014   XYZ
    dof rx rz
    limits (-45.0 45.0)
           (-45.0 45.0)
  end
  begin
     id 24 
     name rclavicle
     direction -0.900919 0.395364 -0.178976   
     length 3.40627  
     axis 0 0 0   XYZ 
    dof ry rz
    limits (-10.0 20.0)
           (-20.0 0.0)
  end
  begin
     id 25 
     name rhumerus
     direction -1 -4.48969e-011 1.03875e-027  
     length 5.08365   
     axis 180 30 90   XYZ
    dof rx ry rz
    limits (-90.0 60.0)
           (-90.0 90.0)
           (-90.0 90.0)
  end
  begin
     id 26 
     name rradius
     direction -1 -4.48951e-011 5.02733e-027   
     length 3.35984   
     axis 180 30 90   XYZ
    dof rx
    limits (-10.0 170.0)
  end
  begin
     id 27 
     name rwrist
     direction -1 -4.49011e-011 9.82828e-027   
     length 1.67992   
     axis -9.31221e-015 -90 -90   XYZ
    dof ry
    limits (-180.0 0.0)
  end
  begin
     id 28
     name rhand
     direction -1 -4.48894e-011 1.96774e-026   
     length 0.820764   
     axis -1.25475e-014 -90 -90   XYZ
    dof rx rz
    limits (-90.0 90.0)
           (-45.0 45.0)
  end
  begin
     id 29
     name rfingers
     direction -1 -4.49095e-011 3.92833e-026   
     length 0.661721   
     axis -2.50945e-014 -90 -90   XYZ
    dof rx
    limits (0.0 90.0)
  end
  begin
     id 30
     name rthumb
     direction -0.707107 -6.34881e-011 0.707107   
     length 0.950103   
     axis -90 -45 4.80359e-014   XYZ
    dof rx rz
    limits (-45.0 45.0)
           (-45.0 45.0)
  end
:hierarchy
  begin
    root lhipjoint rhipjoint lowerback
    lhipjoint lfemur
    lfemur ltibia
    ltibia lfoot
    lfoot ltoes
    rhipjoint rfemur
    rfemur rtibia
    rtibia rfoot
    rfoot rtoes
    lowerback upperback
    upperback thorax
    thorax lowerneck lclavicle rclavicle
    lowerneck upperneck
    upperneck head
    lclavicle lhumerus
    lhumerus lradius
    lradius lwrist
    lwrist lhand lthumb
    lhand lfingers
    rclavicle rhumerus
    rhumerus rradius
    rradius rwrist
    rwrist rhand rthumb
    rhand rfingers
  end

#!OML:ASF I:\golf\golf\golf 2\Subject 1\2002-09-07\Subject1.ASF
:FULLY-SPECIFIED
:DEGREES
106
root -7.08874 17.6547 1.97226 -93.1588 87.2877 -109.059
lowerback 1.65654 1.79928 -1.96264
upperback 2.04995 2.43068 4.16656
thorax 0.917925 1.19783 5.383
lowerneck -14.1163 -2.37117 1.00077
upperneck 42.5145 0.23315 -3.9039
head 18.3373 0.454162 -1.74521
rclavicle -4.49253e-014 -6.83819e-014
rhumerus -6.30809 -1.19659 -101.912
rradius 21.5883
rwrist -40.4933
rhand -14.6217 -13.0976
rfingers 7.12502
rthumb 11.5296 -42.7605
lclavicle -4.49253e-014 -6.83819e-014
lhumerus -9.4102 -39.277 109.629
lradius 23.188
lwrist 32.8263
lhand -9.93232 70.4244
lfingers 7.12502
lthumb -163.951 80.2203
rfemur -29.9751 -4.1865 10.4939
rtibia 31.5642
rfoot -10.5538 -7.58232
rtoes -9.00517
lfemur -29.8855 7.90209 -8.6952
ltibia 32.2532
lfoot -13.3573 -3.85158
ltoes -21.0236
107
root -7.08902 17.6465 1.96975 -97.1479 87.3651 -113.011
lowerback 1.67941 1.76888 -1.99247
upperback 2.06729 2.38892 4.13678
thorax 0.927533 1.1759 5.36908
lowerneck -14.1495 -2.40038 0.928859
upperneck 42.5365 0.200302 -3.86658
head 18.3591 0.435376 -1.72132
rclavicle 2.10712e-014 7.15625e-015
rhumerus -6.35651 -1.22918 -101.848
rradius 21.7426
rwrist -41.1088
rhand -14.3606 -13.2399
rfingers 7.12502
rthumb 11.7814 -42.8885
lclavicle 2.10712e-014 7.15625e-015
lhumerus -9.39707 -39.7427 109.615
lradius 23.2272
lwrist 32.5602
lhand -10.109 70.6598
lfingers 7.12502
lthumb -164.121 79.9712
rfemur -29.9453 -4.41353 10.3773
rtibia 31.6594
rfoot -10.6124 -7.51452
rtoes -8.45945
lfemur -29.8382 7.77404 -8.81923
ltibia 32.1854
lfoot -13.349 -3.91088
ltoes -21.2942
108
root -7.08902 17.6452 1.96681 -100.823 87.3618 -116.643
lowerback 1.71754 1.73808 -1.95125
upperback 2.08075 2.3481 4.12733
thorax 0.926348 1.15588 5.33535
lowerneck -14.1542 -2.44447 0.87444
upperneck 42.5219 0.152975 -3.87626
head 18.3499 0.406161 -1.72449
rclavicle -2.38542e-015 -2.46493e-014
rhumerus -6.45433 -0.901431 -101.823
rradius 21.9648
rwrist -41.9183
rhand -14.5775 -13.3033
rfingers 7.12502
rthumb 11.5722 -42.9638
lclavicle -2.38542e-015 -2.46493e-014
lhumerus -9.34458 -39.9459 109.579
lradius 23.2046
lwrist 32.3737
lhand -10.2244 70.8089
lfingers 7.12502
lthumb -164.233 79.8133
rfemur -29.8908 -4.56558 10.3194
rtibia 31.7461
rfoot -10.7416 -7.44576
rtoes -7.83525
lfemur -29.8222 7.68185 -8.87259
ltibia 32.1428
lfoot -13.3013 -4.07582
ltoes -20.9178
109
root -7.08845 17.6455 1.96391 -103.702 87.3233 -119.493
lowerback 1.72764 1.73556 -1.83672
upperback 2.09502 2.34567 4.10376
thorax 0.940843 1.15574 5.24543
lowerneck -14.1261 -2.48253 0.902883
upperneck 42.4765 0.110364 -3.94525
head 18.3119 0.384202 -1.76858
rclavicle -1.59028e-015 6.36111e-015
rhumerus -6.47194 -0.944053 -101.812
rradius 22.075
rwrist -42.3572
rhand -14.5398 -13.3047
rfingers 7.12502
rthumb 11.6086 -42.9631
lclavicle -1.59028e-015 6.36111e-015
lhumerus -9.31252 -40.0795 109.565
lradius 23.1357
lwrist 32.0755
lhand -10.1178 70.7581
lfingers 7.12502
lthumb -164.13 79.8723
rfemur -29.8457 -4.60656 10.2807
rtibia 31.8083
rfoot -10.758 -7.50163
rtoes -8.41678
lfemur -29.8301 7.66436 -8.90484
ltibia 32.1339
lfoot -13.2926 -4.21148
ltoes -20.7906
110
root -7.08752 17.6453 1.96164 -106.534 87.3004 -122.292
lowerback 1.7338 1.73569 -1.73418
upperback 2.11363 2.34602 4.05641
thorax 0.96222 1.15654 5.13772
lowerneck -14.1297 -2.49353 0.928595
upperneck 42.4782 0.085457 -3.93941
head 18.3123 0.380333 -1.77487
rclavicle 1.94809e-014 5.64548e-014
rhumerus -6.4344 -1.30527 -101.849
rradius 22.0755
rwrist -42.3685
rhand -14.2212 -13.2246
rfingers 7.12502
rthumb 11.9158 -42.8655
lclavicle 1.94809e-014 5.64548e-014
lhumerus -9.26131 -40.0888 109.511
lradius 23.0319
lwrist 31.6261
lhand -9.81335 70.5092
lfingers 7.12502
lthumb -163.837 80.1447
rfemur -29.7856 -4.63219 10.2374
rtibia 31.8383
rfoot -10.7358 -7.68771
rtoes -9.33427
lfemur -29.844 7.65826 -8.96545
ltibia 32.1544
lfoot -13.299 -4.28817
ltoes -21.24
111
root -7.08723 17.6432 1.95954 -110.166 87.282 -125.93
lowerback 1.71211 1.68773 -1.72912
upperback 2.11552 2.28168 4.04748
thorax 0.983409 1.12384 5.12734
lowerneck -14.1649 -2.48223 0.887661
upperneck 42.5159 0.111739 -3.91063
head 18.3469 0.389543 -1.75009
rclavicle -1.23246e-014 1.59028e-015
rhumerus -6.47224 -1.30472 -101.867
rradius 22.1642
rwrist -42.5735
rhand -14.2701 -13.1292
rfingers 7.12502
rthumb 11.8687 -42.7728
lclavicle -1.23246e-014 1.59028e-015
lhumerus -9.13324 -39.8642 109.425
lradius 22.9309
lwrist 31.0292
lhand -10.0504 70.8458
lfingers 7.12502
lthumb -164.065 79.7897
rfemur -29.7632 -4.73969 10.1774
rtibia 31.8693
rfoot -10.7344 -7.81485
rtoes -9.52048
lfemur -29.9196 7.59238 -9.0523
ltibia 32.1854
lfoot -13.2707 -4.37714
ltoes -21.5064
112
root -7.08725 17.6397 1.95749 -114.114 87.2592 -129.918
lowerback 1.69391 1.64486 -1.79183
upperback 2.08246 2.22456 4.07824
thorax 0.962005 1.09519 5.19598
lowerneck -14.1686 -2.50538 0.835561
upperneck 42.554 0.125818 -3.96009
head 18.373 0.383084 -1.76187
rclavicle -1.78906e-014 -4.77083e-015
rhumerus -6.60571 -1.01836 -101.773
rradius 22.3674
rwrist -43.0299
rhand -14.4589 -13.2004
rfingers 7.12502
rthumb 11.6866 -42.8544
lclavicle -1.78906e-014 -4.77083e-015
lhumerus -9.0841 -39.6938 109.444
lradius 22.8957
lwrist 30.557
lhand -10.4891 71.4593
lfingers 7.12502
lthumb -164.487 79.1429
rfemur -29.7863 -4.91018 10.1033
rtibia 31.9095
rfoot -10.6797 -7.83767
rtoes -9.88609
lfemur -30.0474 7.52621 -9.16125
ltibia 32.2221
lfoot -13.2538 -4.51261
ltoes -21.4069
113
root -7.08763 17.6367 1.95588 -116.658 87.1975 -132.474
lowerback 1.72853 1.65304 -1.79662
upperback 2.04105 2.23724 4.12614
thorax 0.89667 1.10355 5.24653
lowerneck -14.1406 -2.56598 0.780786
upperneck 42.5801 0.0864438 -4.01553
head 18.3802 0.355188 -1.78488
rclavicle 3.18055e-015 7.55382e-014
rhumerus -6.74191 -0.849491 -101.673
rradius 22.5345
rwrist -43.2142
rhand -14.7343 -13.2924
rfingers 7.12502
rthumb 11.421 -42.9613
lclavicle 3.18055e-015 7.55382e-014
lhumerus -9.1373 -39.8006 109.555
lradius 22.9239
lwrist 30.412
lhand -10.4913 71.7135
lfingers 7.12502
lthumb -164.489 78.8887
rfemur -29.7884 -4.94453 10.0655
rtibia 31.9571
rfoot -10.715 -7.93147
rtoes -9.92397
lfemur -30.1354 7.56146 -9.21553
ltibia 32.2461
lfoot -13.2673 -4.68473
ltoes -21.3673
114
root -7.08685 17.6356 1.95538 -117.983 87.16 -133.754
lowerback 1.78776 1.6581 -1.82882
upperback 2.03475 2.24553 4.18776
thorax 0.852669 1.10871 5.3272
lowerneck -14.1061 -2.57736 0.706037
upperneck 42.5713 0.113979 -4.04818
head 18.3679 0.3517 -1.78023
rclavicle 1.66979e-014 5.00937e-014
rhumerus -6.84252 -0.674922 -101.672
rradius 22.599
rwrist -43.0963
rhand -15.1384 -13.2227
rfingers 7.12502
rthumb 11.0313 -42.9128
lclavicle 1.66979e-014 5.00937e-014
lhumerus -9.02928 -39.5708 109.556
lradius 22.7479
lwrist 29.7538
lhand -10.4446 71.9213
lfingers 7.12502
lthumb -164.445 78.6843
rfemur -29.7251 -4.7794 9.99971
rtibia 32.0113
rfoot -10.874 -8.12004
rtoes -8.71955
lfemur -30.1248 7.66607 -9.25981
ltibia 32.2473
lfoot -13.2633 -4.85777
ltoes -21.175
